<svg width="140" height="140" viewBox="0 0 140 140" fill="none" xmlns="http://www.w3.org/2000/svg">
<path d="M67.9473 44.6912C67.9473 44.6912 72.934 31.1818 61.2983 21.0498C49.6626 10.9177 31.3779 14.2951 31.3779 14.2951C31.3779 14.2951 31.3779 27.8045 41.3514 37.9365C51.3248 48.0686 67.9473 44.6912 67.9473 44.6912ZM71.2718 37.9365C71.2718 37.9365 66.285 24.4271 77.9207 14.2951C89.5564 4.16303 107.841 7.54038 107.841 7.54038C107.841 7.54038 107.841 21.0498 97.8676 31.1818C87.8942 41.3139 71.2718 37.9365 71.2718 37.9365Z" stroke="#A5F3FC" stroke-width="8" stroke-linecap="round" stroke-linejoin="round"/>
<path d="M68.3499 136.392C65.5698 136.983 62.6689 136.445 60.2852 134.898C57.9016 133.35 56.2305 130.918 55.6396 128.138C55.0487 125.358 55.5863 122.457 57.1343 120.073C58.6822 117.69 61.1137 116.019 63.8938 115.428C66.6738 114.837 69.5748 115.374 71.9584 116.922C74.3421 118.47 76.0132 120.902 76.6041 123.682C77.195 126.462 76.6573 129.363 75.1094 131.747C73.5614 134.13 71.13 135.801 68.3499 136.392ZM105.038 128.594C102.258 129.185 99.3568 128.647 96.9731 127.099C94.5895 125.551 92.9184 123.12 92.3274 120.34C91.7365 117.56 92.2742 114.659 93.8221 112.275C95.3701 109.892 97.8016 108.22 100.582 107.629C103.362 107.039 106.263 107.576 108.646 109.124C111.03 110.672 112.701 113.104 113.292 115.884C113.883 118.664 113.345 121.565 111.797 123.948C110.249 126.332 107.818 128.003 105.038 128.594ZM21.0217 69.3395C19.7044 69.5754 18.3469 69.2897 17.2364 68.5428C16.1259 67.7959 15.3494 66.6464 15.0711 65.3373C14.7929 64.0282 15.0347 62.6622 15.7454 61.5282C16.4561 60.3942 17.58 59.5811 18.8794 59.2608L24.912 57.9785C29.6395 56.9737 34.4249 59.3857 36.4325 63.7795L49.285 91.954C51.2927 96.3479 56.0781 98.7599 60.8056 97.755L100.177 89.3864L101.307 57.5387L52.3283 67.9493C51.0197 68.1657 49.678 67.8692 48.5824 67.1216C47.4867 66.374 46.7214 65.2329 46.4456 63.9355C46.1699 62.638 46.4048 61.2842 47.1017 60.1556C47.7986 59.027 48.9037 58.2105 50.1872 57.8759L99.1655 47.4652C100.698 47.1391 102.284 47.1666 103.804 47.5455C105.324 47.9245 106.737 48.645 107.937 49.6523C109.136 50.6595 110.09 51.927 110.726 53.3584C111.363 54.7898 111.664 56.3473 111.608 57.9127L110.476 89.75C110.395 92.0471 109.548 94.2511 108.07 96.0115C106.592 97.7719 104.568 98.9875 102.319 99.4651L62.9479 107.834C58.361 108.809 53.5785 108.191 49.3902 106.082C45.202 103.972 41.8585 100.497 39.912 96.2306L27.0542 68.0572L21.0217 69.3395Z" fill="#A5F3FC"/>
</svg>
